<svg xmlns="http://www.w3.org/2000/svg" xmlns:xlink="http://www.w3.org/1999/xlink" width="1366" zoomAndPan="magnify" viewBox="0 0 1024.5 108.75" height="145" preserveAspectRatio="xMidYMid meet" version="1.2"><defs><clipPath id="74a12ef7ab"><path d="M 0.925781 103 L 11.957031 103 L 11.957031 108.5 L 0.925781 108.5 Z M 0.925781 103 "/></clipPath></defs><g id="a3cf81b546"><g clip-rule="nonzero" clip-path="url(#74a12ef7ab)"><path style=" stroke:none;fill-rule:nonzero;fill:#000000;fill-opacity:1;" d="M 11.90625 122.160156 C 11.664062 121.191406 9.800781 118.53125 9.078125 117.878906 C 7.046875 115.898438 5.121094 113.804688 2.835938 112.101562 C -15.976562 97.738281 -41.730469 104.320312 -61.570312 113.011719 C -64.96875 114.488281 -68.226562 116.167969 -71.757812 117.300781 C -75.535156 118.519531 -79.410156 119.570312 -83.332031 120.351562 C -84.242188 117.328125 -86.050781 114.628906 -89.074219 112.671875 C -93.625 109.886719 -101.859375 109.972656 -106.226562 113.058594 C -107.519531 113.949219 -108.609375 115.359375 -108.976562 116.945312 C -109.832031 120.210938 -107.390625 122.226562 -104.558594 122.980469 C -98.773438 124.457031 -91.46875 123.605469 -85.222656 122.476562 C -84.5625 126.210938 -85.273438 130.183594 -86.585938 133.707031 C -87.070312 135.007812 -87.851562 137.136719 -88.34375 138.472656 C -88.894531 140.15625 -86.480469 140.976562 -85.867188 139.355469 C -85.546875 138.453125 -84.824219 136.332031 -84.507812 135.441406 C -82.894531 131.234375 -82.089844 126.394531 -82.914062 122.039062 C -82.621094 121.980469 -82.328125 121.921875 -82.039062 121.863281 C -76.546875 120.660156 -71.097656 119.140625 -65.964844 116.796875 C -64.28125 116.003906 -62.617188 115.226562 -60.921875 114.488281 C -41.554688 106.03125 -16.503906 99.390625 1.878906 113.339844 C 3.992188 115.039062 6.128906 116.824219 7.699219 119.054688 C 8.207031 119.8125 9.289062 120.941406 8.851562 121.792969 C 8.65625 122.152344 8.59375 122.574219 8.707031 123 C 8.941406 123.882812 9.847656 124.40625 10.730469 124.175781 C 11.613281 123.941406 12.140625 123.035156 11.90625 122.152344 Z M -98.757812 121.875 C -101.320312 121.730469 -104.105469 121.574219 -106.203125 120.125 C -107.5 119.183594 -107.355469 117.660156 -106.65625 116.371094 C -105.378906 114.207031 -102.773438 113.371094 -100.316406 112.972656 C -96.980469 112.542969 -93.207031 112.757812 -90.285156 114.519531 C -88.171875 115.933594 -86.523438 118.007812 -85.730469 120.429688 C -85.695312 120.546875 -85.664062 120.664062 -85.628906 120.78125 C -89.972656 121.527344 -94.371094 121.933594 -98.761719 121.875 Z M -98.757812 121.875 "/></g><path style=" stroke:none;fill-rule:nonzero;fill:#231f20;fill-opacity:1;" d="M 825.90625 23.503906 C 830.273438 26.308594 827.847656 32.03125 823.550781 33.207031 C 819.5625 34.285156 815.542969 31.960938 813.464844 28.597656 C 809.238281 21.769531 813.8125 13.449219 820.394531 10.226562 C 826.496094 7.246094 835.679688 7.625 840.425781 12.964844 C 845.171875 18.304688 844.617188 27.003906 842.539062 33.3125 C 838.171875 46.726562 825.90625 52.863281 813.015625 55.984375 C 799.257812 59.3125 784.980469 58.167969 771.707031 53.558594 L 772.226562 57.4375 C 777.21875 54.214844 783.210938 51.40625 789.035156 50.125 C 796.105469 48.566406 804.039062 49.988281 810.933594 51.71875 C 824.136719 55.082031 837.445312 60.558594 842.332031 74.355469 C 844.375 80.144531 845.070312 87.597656 842.019531 93.214844 C 838.171875 100.25 828.644531 101.324219 821.78125 98.726562 C 814.921875 96.125 809.132812 87.804688 813.152344 80.457031 C 814.78125 77.476562 817.902344 75.050781 821.402344 74.980469 C 826.425781 74.910156 831.589844 81.359375 825.976562 84.929688 C 823.6875 86.382812 825.800781 90.058594 828.125 88.601562 C 832.28125 85.933594 833.910156 80.5625 831.414062 76.125 C 828.539062 70.992188 821.644531 69.640625 816.550781 71.824219 C 802.792969 77.683594 806.847656 96.160156 818.351562 101.878906 C 831.519531 108.429688 847.078125 101.394531 848.257812 86.316406 C 849.4375 71.234375 839.421875 57.820312 825.628906 52.101562 C 816.097656 48.148438 805.667969 45.339844 795.308594 45.339844 C 786.46875 45.339844 777.527344 49.015625 770.183594 53.800781 C 768.589844 54.839844 768.96875 57.058594 770.703125 57.683594 C 797.316406 66.9375 846.144531 62.707031 848.328125 26.171875 C 848.742188 19.34375 846.871094 11.925781 841.050781 7.765625 C 835.226562 3.605469 827.707031 3.292969 821.296875 5.40625 C 809.339844 9.394531 802.0625 25.859375 813.535156 34.769531 C 818.457031 38.582031 826.078125 38.824219 830.375 33.867188 C 834.222656 29.429688 832.976562 22.878906 828.191406 19.828125 C 825.90625 18.335938 823.757812 22.011719 826.042969 23.503906 Z M 825.90625 23.503906 "/><path style=" stroke:none;fill-rule:nonzero;fill:#231f20;fill-opacity:1;" d="M 876.015625 24.714844 C 869.292969 21.457031 861.808594 26.308594 857.269531 31.300781 C 851.863281 37.265625 849.195312 45.097656 849.746094 53.105469 C 849.851562 54.355469 851.066406 55.671875 852.417969 55.152344 C 860.558594 52.03125 870.472656 48.355469 876.050781 41.285156 C 879.792969 36.535156 881.386719 28.839844 875.980469 24.714844 C 873.832031 23.050781 871.71875 26.726562 873.832031 28.390625 C 877.503906 31.199219 874.039062 37.265625 871.925781 39.621094 C 870.125 41.632812 867.800781 43.089844 865.515625 44.441406 C 860.976562 47.074219 856.160156 49.222656 851.273438 51.097656 L 853.941406 53.140625 C 853.558594 47.59375 854.738281 42.257812 857.789062 37.542969 C 860.59375 33.175781 867.90625 25.546875 873.832031 28.425781 C 876.292969 29.605469 878.441406 25.964844 875.980469 24.75 Z M 876.015625 24.714844 "/><path style=" stroke:none;fill-rule:nonzero;fill:#231f20;fill-opacity:1;" d="M 873.867188 78.757812 C 867.976562 81.601562 860.628906 73.972656 857.820312 69.640625 C 854.808594 64.925781 853.59375 59.589844 853.976562 54.042969 L 851.308594 56.085938 C 856.195312 57.960938 861.011719 60.074219 865.550781 62.742188 C 867.871094 64.09375 870.160156 65.550781 871.960938 67.5625 C 874.074219 69.917969 877.539062 75.984375 873.867188 78.792969 C 871.71875 80.421875 873.867188 84.097656 876.015625 82.46875 C 881.421875 78.34375 879.828125 70.648438 876.085938 65.898438 C 870.503906 58.824219 860.59375 55.152344 852.449219 52.03125 C 851.066406 51.511719 849.851562 52.828125 849.78125 54.078125 C 849.226562 62.085938 851.894531 69.917969 857.300781 75.882812 C 861.808594 80.871094 869.292969 85.726562 876.050781 82.46875 C 878.511719 81.289062 876.363281 77.613281 873.902344 78.792969 Z M 873.867188 78.757812 "/><path style=" stroke:none;fill-rule:nonzero;fill:#231f20;fill-opacity:1;" d="M 854.460938 55.117188 C 860.871094 52.34375 867.664062 50.507812 874.628906 49.8125 C 877.679688 49.5 880.726562 49.433594 883.8125 49.535156 C 885.511719 49.605469 892.511719 49.328125 893.515625 50.957031 C 896.910156 56.332031 879.515625 55.742188 876.8125 55.707031 C 873.484375 55.707031 870.195312 55.53125 866.867188 55.1875 C 863.539062 54.839844 857.441406 54.667969 854.597656 52.898438 L 855.570312 55.289062 L 854.460938 56.363281 C 857.164062 55.984375 856.019531 51.894531 853.316406 52.273438 L 853.003906 52.273438 C 852.3125 52.414062 851.6875 53.140625 851.515625 53.800781 L 851.445312 54.144531 C 851.203125 55.082031 851.585938 56.054688 852.417969 56.539062 C 855.742188 58.582031 861.011719 58.722656 864.855469 59.171875 C 870.78125 59.902344 876.777344 60.039062 882.738281 59.832031 C 889.113281 59.589844 898.4375 60.003906 897.777344 51.339844 C 897.222656 44.40625 886.964844 45.273438 881.941406 45.203125 C 871.683594 45.097656 861.703125 47.386719 852.3125 51.40625 C 849.816406 52.480469 851.964844 56.121094 854.460938 55.082031 Z M 854.460938 55.117188 "/><path style=" stroke:none;fill-rule:nonzero;fill:#231f20;fill-opacity:1;" d="M 195.96875 19.863281 C 191.808594 22.53125 190.144531 27.90625 192.675781 32.34375 C 195.515625 37.367188 202.207031 38.824219 207.300781 36.746094 C 220.015625 31.578125 218.113281 14.523438 207.992188 7.867188 C 195.863281 -0.105469 178.433594 5.128906 176.109375 20.175781 C 173.789062 35.21875 182.660156 48.910156 195.550781 55.046875 C 213.640625 63.714844 234.640625 64.164062 253.457031 57.648438 C 255.191406 57.058594 255.539062 54.804688 253.976562 53.765625 C 248.261719 50.054688 240.496094 46.207031 233.636719 45.550781 C 224.105469 44.648438 214.4375 46.589844 205.429688 49.535156 C 190.699219 54.390625 178.15625 63.472656 176.078125 79.902344 C 175.210938 86.765625 176.320312 94.667969 181.726562 99.523438 C 186.644531 103.960938 194.097656 105.035156 200.402344 103.683594 C 213.328125 100.910156 222.859375 84.199219 211.179688 74.078125 C 206.46875 69.953125 198.914062 69.398438 194.304688 74.078125 C 189.972656 78.410156 190.976562 85.378906 196.003906 88.601562 C 198.289062 90.09375 200.4375 86.417969 198.152344 84.929688 C 193.230469 81.773438 196.835938 75.605469 201.617188 75.117188 C 205.289062 74.738281 208.652344 76.714844 210.589844 79.832031 C 214.820312 86.660156 210.28125 95.015625 203.660156 98.207031 C 197.042969 101.394531 187.304688 100.734375 182.832031 94.355469 C 178.882812 88.707031 179.542969 80.59375 181.726562 74.390625 C 186.472656 60.871094 199.292969 55.429688 212.152344 51.996094 C 218.941406 50.195312 226.601562 48.738281 233.636719 49.8125 C 239.875 50.75 246.597656 54.042969 251.828125 57.472656 L 252.351562 53.589844 C 239.042969 58.203125 224.800781 59.347656 211.042969 56.019531 C 198.152344 52.898438 185.882812 46.726562 181.515625 33.347656 C 179.542969 27.246094 179.089844 19.621094 182.867188 14.109375 C 187.269531 7.660156 197.113281 7.105469 203.695312 10.261719 C 210.28125 13.414062 214.679688 21.285156 211.007812 28.007812 C 209.171875 31.335938 205.566406 33.902344 201.652344 33.347656 C 197.042969 32.6875 193.023438 26.832031 198.1875 23.539062 C 200.472656 22.082031 198.359375 18.40625 196.035156 19.863281 Z M 195.96875 19.863281 "/><path style=" stroke:none;fill-rule:nonzero;fill:#231f20;fill-opacity:1;" d="M 150.15625 28.390625 C 156.046875 25.546875 163.394531 33.175781 166.199219 37.507812 C 169.214844 42.222656 170.429688 47.558594 170.046875 53.105469 L 172.714844 51.0625 C 167.828125 49.1875 163.011719 47.074219 158.472656 44.40625 C 156.152344 43.054688 153.863281 41.597656 152.0625 39.585938 C 149.949219 37.230469 146.480469 31.164062 150.15625 28.355469 C 152.304688 26.726562 150.15625 23.050781 148.007812 24.679688 C 142.601562 28.804688 144.195312 36.5 147.9375 41.25 C 153.515625 48.324219 163.429688 51.996094 171.570312 55.117188 C 172.957031 55.636719 174.171875 54.320312 174.238281 53.070312 C 174.792969 45.0625 172.125 37.230469 166.71875 31.265625 C 162.214844 26.277344 154.730469 21.421875 147.972656 24.679688 C 145.511719 25.859375 147.660156 29.535156 150.121094 28.355469 Z M 150.15625 28.390625 "/><path style=" stroke:none;fill-rule:nonzero;fill:#231f20;fill-opacity:1;" d="M 148.007812 82.433594 C 154.730469 85.691406 162.214844 80.839844 166.753906 75.847656 C 172.160156 69.882812 174.828125 62.050781 174.273438 54.042969 C 174.171875 52.792969 172.957031 51.476562 171.605469 51.996094 C 163.460938 55.117188 153.550781 58.792969 147.972656 65.863281 C 144.230469 70.613281 142.636719 78.308594 148.042969 82.433594 C 150.191406 84.097656 152.304688 80.421875 150.191406 78.757812 C 146.515625 75.949219 149.980469 69.882812 152.097656 67.527344 C 153.898438 65.515625 156.21875 64.058594 158.507812 62.707031 C 163.046875 60.074219 167.863281 57.925781 172.75 56.054688 L 170.082031 54.007812 C 170.460938 59.554688 169.285156 64.890625 166.234375 69.605469 C 163.429688 73.972656 156.117188 81.601562 150.191406 78.722656 C 147.730469 77.546875 145.582031 81.183594 148.042969 82.398438 Z M 148.007812 82.433594 "/><path style=" stroke:none;fill-rule:nonzero;fill:#231f20;fill-opacity:1;" d="M 171.675781 51.476562 C 162.5625 47.558594 152.925781 45.308594 142.949219 45.273438 C 137.851562 45.273438 126.730469 44.265625 126.175781 51.40625 C 125.515625 59.691406 133.9375 59.589844 140.210938 59.867188 C 146.480469 60.144531 152.164062 60.003906 158.089844 59.378906 C 162.25 58.929688 167.933594 58.824219 171.535156 56.609375 C 172.367188 56.085938 172.75 55.152344 172.507812 54.214844 L 172.4375 53.867188 C 172.300781 53.210938 171.640625 52.480469 170.949219 52.378906 L 170.636719 52.378906 C 167.96875 51.960938 166.824219 56.054688 169.492188 56.433594 L 168.382812 55.359375 L 169.355469 52.96875 C 166.546875 54.699219 161.175781 54.804688 158.054688 55.152344 C 154.765625 55.53125 151.4375 55.707031 148.144531 55.777344 C 145.339844 55.808594 126.902344 56.539062 130.4375 51.027344 C 131.546875 49.257812 138.234375 49.675781 140.140625 49.605469 C 142.878906 49.5 145.648438 49.605469 148.386719 49.8125 C 155.664062 50.4375 162.769531 52.308594 169.457031 55.1875 C 171.953125 56.261719 174.101562 52.585938 171.605469 51.511719 Z M 171.675781 51.476562 "/><path style="fill:none;stroke-width:1.22;stroke-linecap:butt;stroke-linejoin:miter;stroke:#231f20;stroke-opacity:1;stroke-miterlimit:10;" d="M 176.120294 14.449917 L 44.960508 14.449917 " transform="matrix(3.465388,0,0,3.466472,126.174869,4.15977)"/></g></svg>