<svg xmlns="http://www.w3.org/2000/svg" xmlns:xlink="http://www.w3.org/1999/xlink" width="1366" zoomAndPan="magnify" viewBox="0 0 1024.5 108.75" height="145" preserveAspectRatio="xMidYMid meet" version="1.2"><defs><clipPath id="2d3109965b"><path d="M 0.925781 103 L 11.957031 103 L 11.957031 108.5 L 0.925781 108.5 Z M 0.925781 103 "/></clipPath><clipPath id="755972465f"><path d="M 401 27 L 518 27 L 518 82.375 L 401 82.375 Z M 401 27 "/></clipPath><clipPath id="e498367e79"><path d="M 511 27 L 628 27 L 628 82.375 L 511 82.375 Z M 511 27 "/></clipPath><clipPath id="cb12e6f5af"><path d="M 16.84375 51 L 383 51 L 383 58 L 16.84375 58 Z M 16.84375 51 "/></clipPath><clipPath id="2fe2a7dc81"><path d="M 646 51 L 1012.058594 51 L 1012.058594 58 L 646 58 Z M 646 51 "/></clipPath></defs><g id="4623d99dd0"><g clip-rule="nonzero" clip-path="url(#2d3109965b)"><path style=" stroke:none;fill-rule:nonzero;fill:#000000;fill-opacity:1;" d="M 11.90625 122.160156 C 11.664062 121.191406 9.800781 118.53125 9.078125 117.878906 C 7.046875 115.898438 5.121094 113.804688 2.835938 112.101562 C -15.976562 97.738281 -41.730469 104.320312 -61.570312 113.011719 C -64.96875 114.488281 -68.226562 116.167969 -71.757812 117.300781 C -75.535156 118.519531 -79.410156 119.570312 -83.332031 120.351562 C -84.242188 117.328125 -86.050781 114.628906 -89.074219 112.671875 C -93.625 109.886719 -101.859375 109.972656 -106.226562 113.058594 C -107.519531 113.949219 -108.609375 115.359375 -108.976562 116.945312 C -109.832031 120.210938 -107.390625 122.226562 -104.558594 122.980469 C -98.773438 124.457031 -91.46875 123.605469 -85.222656 122.476562 C -84.5625 126.210938 -85.273438 130.183594 -86.585938 133.707031 C -87.070312 135.007812 -87.851562 137.136719 -88.34375 138.472656 C -88.894531 140.15625 -86.480469 140.976562 -85.867188 139.355469 C -85.546875 138.453125 -84.824219 136.332031 -84.507812 135.441406 C -82.894531 131.234375 -82.089844 126.394531 -82.914062 122.039062 C -82.621094 121.980469 -82.328125 121.921875 -82.039062 121.863281 C -76.546875 120.660156 -71.097656 119.140625 -65.964844 116.796875 C -64.28125 116.003906 -62.617188 115.226562 -60.921875 114.488281 C -41.554688 106.03125 -16.503906 99.390625 1.878906 113.339844 C 3.992188 115.039062 6.128906 116.824219 7.699219 119.054688 C 8.207031 119.8125 9.289062 120.941406 8.851562 121.792969 C 8.65625 122.152344 8.59375 122.574219 8.707031 123 C 8.941406 123.882812 9.847656 124.40625 10.730469 124.175781 C 11.613281 123.941406 12.140625 123.035156 11.90625 122.152344 Z M -98.757812 121.875 C -101.320312 121.730469 -104.105469 121.574219 -106.203125 120.125 C -107.5 119.183594 -107.355469 117.660156 -106.65625 116.371094 C -105.378906 114.207031 -102.773438 113.371094 -100.316406 112.972656 C -96.980469 112.542969 -93.207031 112.757812 -90.285156 114.519531 C -88.171875 115.933594 -86.523438 118.007812 -85.730469 120.429688 C -85.695312 120.546875 -85.664062 120.664062 -85.628906 120.78125 C -89.972656 121.527344 -94.371094 121.933594 -98.761719 121.875 Z M -98.757812 121.875 "/></g><g clip-rule="nonzero" clip-path="url(#755972465f)"><path style=" stroke:none;fill-rule:nonzero;fill:#231f20;fill-opacity:1;" d="M 429.050781 82.105469 C 422.121094 82.105469 414.746094 78.84375 409.144531 73.257812 C 408.8125 72.945312 408.523438 72.625 408.234375 72.3125 C 400.011719 63.328125 398.945312 49.546875 405.636719 38.78125 C 409.59375 32.429688 415.589844 28.503906 422.976562 27.433594 C 429.488281 26.492188 436.613281 27.902344 443.046875 31.40625 C 450.59375 35.511719 456.503906 41.589844 462.222656 47.46875 C 469.652344 55.117188 476.667969 62.316406 486.769531 65.074219 C 493.386719 66.882812 500.855469 65.898438 505.796875 62.566406 C 506.566406 62.023438 507.269531 61.40625 507.902344 60.707031 C 508.53125 60.007812 509.078125 59.25 509.542969 58.425781 C 510.003906 57.605469 510.367188 56.742188 510.636719 55.839844 C 510.90625 54.933594 511.070312 54.011719 511.132812 53.070312 C 511.242188 50.957031 510.800781 47.949219 508.003906 45.609375 C 506.152344 44.058594 503.359375 43.566406 500.882812 44.359375 C 499.710938 44.738281 497.644531 45.753906 496.984375 48.3125 C 496.496094 50.199219 497.597656 52.171875 498.910156 53.300781 C 499.246094 53.585938 499.515625 53.925781 499.714844 54.320312 C 499.917969 54.714844 500.035156 55.132812 500.070312 55.574219 C 500.105469 56.015625 500.054688 56.445312 499.917969 56.867188 C 499.78125 57.285156 499.570312 57.664062 499.285156 58 C 499 58.335938 498.660156 58.605469 498.265625 58.804688 C 497.871094 59.007812 497.457031 59.125 497.015625 59.15625 C 496.578125 59.191406 496.148438 59.140625 495.726562 59.003906 C 495.308594 58.863281 494.929688 58.652344 494.597656 58.363281 C 491.082031 55.371094 489.496094 50.761719 490.554688 46.65625 C 491.617188 42.550781 494.644531 39.390625 498.851562 38.039062 C 503.496094 36.539062 508.644531 37.488281 512.253906 40.519531 C 516.066406 43.71875 518.019531 48.300781 517.753906 53.425781 C 517.664062 54.882812 517.414062 56.3125 517.003906 57.714844 C 516.589844 59.113281 516.027344 60.449219 515.3125 61.71875 C 514.59375 62.988281 513.746094 64.164062 512.761719 65.242188 C 511.78125 66.316406 510.6875 67.269531 509.488281 68.097656 C 502.921875 72.527344 493.542969 73.832031 485.019531 71.503906 C 473.179688 68.265625 465.195312 60.058594 457.484375 52.121094 C 451.867188 46.347656 446.558594 40.886719 439.902344 37.261719 C 430.742188 32.273438 417.875 31.722656 411.289062 42.316406 C 406.246094 50.417969 407.023438 61.144531 413.140625 67.820312 C 413.359375 68.0625 413.597656 68.308594 413.839844 68.550781 C 418.339844 73.03125 424.421875 75.675781 429.714844 75.449219 C 430.328125 75.425781 430.9375 75.351562 431.539062 75.230469 C 432.140625 75.109375 432.726562 74.9375 433.300781 74.722656 C 433.875 74.503906 434.429688 74.242188 434.960938 73.9375 C 435.492188 73.632812 436 73.285156 436.476562 72.898438 C 436.953125 72.511719 437.394531 72.089844 437.804688 71.628906 C 438.214844 71.171875 438.585938 70.683594 438.914062 70.164062 C 439.246094 69.648438 439.535156 69.105469 439.78125 68.542969 C 440.023438 67.980469 440.222656 67.398438 440.375 66.800781 C 441.503906 62.210938 440.085938 56.824219 436.769531 53.089844 C 435.109375 51.210938 431.511719 48.164062 426.152344 48.832031 C 423.425781 49.164062 421.507812 51.269531 420.988281 54.4375 C 420.929688 54.824219 420.910156 55.207031 420.925781 55.597656 C 420.941406 56.039062 420.875 56.464844 420.722656 56.878906 C 420.570312 57.292969 420.34375 57.664062 420.042969 57.984375 C 419.746094 58.308594 419.394531 58.566406 418.996094 58.75 C 418.597656 58.933594 418.175781 59.035156 417.738281 59.050781 C 417.296875 59.070312 416.871094 59 416.457031 58.847656 C 416.042969 58.695312 415.675781 58.46875 415.351562 58.167969 C 415.03125 57.871094 414.777344 57.519531 414.59375 57.117188 C 414.40625 56.71875 414.308594 56.296875 414.289062 55.855469 C 414.257812 55.027344 414.304688 54.207031 414.433594 53.386719 C 415.402344 47.316406 419.675781 42.9375 425.328125 42.230469 C 431.433594 41.464844 437.40625 43.8125 441.714844 48.667969 C 446.511719 54.078125 448.460938 61.640625 446.804688 68.390625 C 446.566406 69.335938 446.253906 70.25 445.867188 71.144531 C 445.480469 72.035156 445.027344 72.890625 444.503906 73.710938 C 443.984375 74.527344 443.398438 75.300781 442.753906 76.023438 C 442.109375 76.75 441.410156 77.417969 440.65625 78.03125 C 439.902344 78.644531 439.105469 79.191406 438.265625 79.675781 C 437.425781 80.160156 436.554688 80.578125 435.648438 80.921875 C 434.738281 81.265625 433.8125 81.535156 432.863281 81.730469 C 431.914062 81.925781 430.953125 82.042969 429.984375 82.082031 C 429.667969 82.101562 429.359375 82.105469 429.050781 82.105469 Z M 429.050781 82.105469 "/></g><g clip-rule="nonzero" clip-path="url(#e498367e79)"><path style=" stroke:none;fill-rule:nonzero;fill:#231f20;fill-opacity:1;" d="M 599.855469 82.105469 C 599.546875 82.105469 599.238281 82.105469 598.933594 82.085938 C 597.964844 82.046875 597.003906 81.929688 596.054688 81.734375 C 595.105469 81.539062 594.175781 81.269531 593.269531 80.925781 C 592.363281 80.578125 591.488281 80.164062 590.648438 79.679688 C 589.808594 79.195312 589.011719 78.648438 588.261719 78.035156 C 587.507812 77.421875 586.808594 76.753906 586.164062 76.027344 C 585.515625 75.304688 584.933594 74.53125 584.410156 73.710938 C 583.886719 72.894531 583.433594 72.039062 583.050781 71.148438 C 582.664062 70.253906 582.351562 69.335938 582.113281 68.394531 C 580.453125 61.640625 582.40625 54.09375 587.203125 48.671875 C 591.515625 43.816406 597.484375 41.46875 603.589844 42.234375 C 609.230469 42.941406 613.515625 47.320312 614.484375 53.390625 C 614.613281 54.210938 614.660156 55.03125 614.625 55.859375 C 614.609375 56.300781 614.507812 56.722656 614.324219 57.121094 C 614.140625 57.523438 613.886719 57.875 613.5625 58.171875 C 613.238281 58.472656 612.871094 58.699219 612.457031 58.851562 C 612.046875 59.003906 611.621094 59.074219 611.179688 59.054688 C 610.738281 59.039062 610.320312 58.9375 609.917969 58.753906 C 609.519531 58.566406 609.171875 58.3125 608.871094 57.988281 C 608.574219 57.664062 608.347656 57.296875 608.195312 56.882812 C 608.042969 56.46875 607.972656 56.039062 607.992188 55.601562 C 608.007812 55.210938 607.988281 54.824219 607.929688 54.441406 C 607.421875 51.273438 605.488281 49.175781 602.761719 48.835938 C 597.414062 48.167969 593.804688 51.214844 592.148438 53.089844 C 588.832031 56.832031 587.414062 62.214844 588.542969 66.804688 C 588.695312 67.402344 588.890625 67.980469 589.136719 68.546875 C 589.382812 69.109375 589.667969 69.652344 590 70.167969 C 590.332031 70.6875 590.703125 71.175781 591.113281 71.632812 C 591.519531 72.09375 591.964844 72.515625 592.441406 72.902344 C 592.917969 73.289062 593.421875 73.636719 593.957031 73.941406 C 594.488281 74.246094 595.042969 74.507812 595.617188 74.726562 C 596.191406 74.941406 596.777344 75.113281 597.378906 75.234375 C 597.980469 75.355469 598.585938 75.429688 599.199219 75.453125 C 604.507812 75.679688 610.574219 73.035156 615.078125 68.554688 C 615.320312 68.308594 615.554688 68.066406 615.773438 67.828125 C 621.890625 61.148438 622.671875 50.421875 617.628906 42.316406 C 611.039062 31.726562 598.175781 32.273438 589.011719 37.265625 C 582.351562 40.890625 577.042969 46.347656 571.429688 52.125 C 563.707031 60.0625 555.722656 68.269531 543.898438 71.503906 C 535.375 73.835938 525.984375 72.53125 519.425781 68.101562 C 518.226562 67.273438 517.136719 66.320312 516.152344 65.246094 C 515.171875 64.167969 514.320312 62.992188 513.605469 61.722656 C 512.890625 60.453125 512.324219 59.117188 511.914062 57.714844 C 511.5 56.316406 511.25 54.886719 511.164062 53.429688 C 510.894531 48.304688 512.847656 43.722656 516.664062 40.523438 C 520.273438 37.492188 525.410156 36.53125 530.066406 38.039062 C 534.273438 39.394531 537.292969 42.535156 538.359375 46.660156 C 539.425781 50.785156 537.835938 55.359375 534.320312 58.367188 C 533.984375 58.652344 533.609375 58.867188 533.1875 59 C 532.769531 59.136719 532.339844 59.1875 531.902344 59.15625 C 531.464844 59.121094 531.046875 59.003906 530.65625 58.800781 C 530.261719 58.601562 529.925781 58.332031 529.636719 57.996094 C 529.351562 57.664062 529.140625 57.285156 529.003906 56.863281 C 528.871094 56.445312 528.820312 56.015625 528.851562 55.574219 C 528.886719 55.132812 529.003906 54.71875 529.203125 54.324219 C 529.40625 53.929688 529.671875 53.589844 530.007812 53.304688 C 531.316406 52.1875 532.417969 50.210938 531.929688 48.316406 C 531.265625 45.757812 529.203125 44.742188 528.03125 44.363281 C 525.5625 43.570312 522.765625 44.0625 520.914062 45.613281 C 518.128906 47.941406 517.671875 50.960938 517.78125 53.070312 C 517.84375 54.011719 518.007812 54.9375 518.277344 55.839844 C 518.546875 56.742188 518.914062 57.605469 519.375 58.429688 C 519.835938 59.25 520.382812 60.011719 521.015625 60.710938 C 521.648438 61.40625 522.347656 62.027344 523.121094 62.566406 C 528.0625 65.894531 535.527344 66.890625 542.144531 65.078125 C 552.242188 62.320312 559.257812 55.097656 566.695312 47.46875 C 572.414062 41.59375 578.324219 35.515625 585.867188 31.40625 C 592.304688 27.90625 599.429688 26.492188 605.9375 27.4375 C 613.328125 28.507812 619.324219 32.425781 623.277344 38.785156 C 629.972656 49.550781 628.917969 63.335938 620.683594 72.3125 C 620.394531 72.625 620.089844 72.949219 619.769531 73.261719 C 614.160156 78.84375 606.78125 82.105469 599.855469 82.105469 Z M 599.855469 82.105469 "/></g><g clip-rule="nonzero" clip-path="url(#cb12e6f5af)"><path style=" stroke:none;fill-rule:nonzero;fill:#231f20;fill-opacity:1;" d="M 16.84375 51.246094 L 382.65625 51.246094 L 382.65625 57.898438 L 16.84375 57.898438 Z M 16.84375 51.246094 "/></g><g clip-rule="nonzero" clip-path="url(#2fe2a7dc81)"><path style=" stroke:none;fill-rule:nonzero;fill:#231f20;fill-opacity:1;" d="M 646.246094 51.246094 L 1012.058594 51.246094 L 1012.058594 57.898438 L 646.246094 57.898438 Z M 646.246094 51.246094 "/></g><path style=" stroke:none;fill-rule:nonzero;fill:#231f20;fill-opacity:1;" d="M 391.710938 54.570312 C 391.710938 55.167969 391.652344 55.757812 391.539062 56.34375 C 391.421875 56.929688 391.25 57.496094 391.023438 58.046875 C 390.796875 58.597656 390.515625 59.121094 390.1875 59.617188 C 389.855469 60.113281 389.480469 60.570312 389.058594 60.992188 C 388.640625 61.414062 388.179688 61.789062 387.6875 62.121094 C 387.191406 62.453125 386.671875 62.734375 386.121094 62.960938 C 385.570312 63.1875 385.003906 63.363281 384.421875 63.476562 C 383.839844 63.59375 383.25 63.652344 382.65625 63.652344 C 382.0625 63.652344 381.472656 63.59375 380.890625 63.476562 C 380.304688 63.363281 379.738281 63.1875 379.191406 62.960938 C 378.640625 62.734375 378.117188 62.453125 377.625 62.121094 C 377.128906 61.789062 376.671875 61.414062 376.25 60.992188 C 375.832031 60.570312 375.457031 60.113281 375.125 59.617188 C 374.796875 59.121094 374.515625 58.597656 374.289062 58.046875 C 374.0625 57.496094 373.890625 56.929688 373.773438 56.34375 C 373.65625 55.757812 373.597656 55.167969 373.597656 54.570312 C 373.597656 53.976562 373.65625 53.386719 373.773438 52.800781 C 373.890625 52.214844 374.0625 51.648438 374.289062 51.097656 C 374.515625 50.546875 374.796875 50.023438 375.125 49.527344 C 375.457031 49.03125 375.832031 48.574219 376.25 48.152344 C 376.671875 47.730469 377.128906 47.351562 377.625 47.023438 C 378.117188 46.691406 378.640625 46.410156 379.191406 46.183594 C 379.738281 45.953125 380.304688 45.78125 380.890625 45.664062 C 381.472656 45.550781 382.0625 45.492188 382.65625 45.492188 C 383.25 45.492188 383.839844 45.550781 384.421875 45.664062 C 385.003906 45.78125 385.570312 45.953125 386.121094 46.183594 C 386.671875 46.410156 387.191406 46.691406 387.6875 47.023438 C 388.179688 47.351562 388.640625 47.730469 389.058594 48.152344 C 389.480469 48.574219 389.855469 49.03125 390.1875 49.527344 C 390.515625 50.023438 390.796875 50.546875 391.023438 51.097656 C 391.25 51.648438 391.421875 52.214844 391.539062 52.800781 C 391.652344 53.386719 391.710938 53.976562 391.710938 54.570312 Z M 391.710938 54.570312 "/><path style=" stroke:none;fill-rule:nonzero;fill:#231f20;fill-opacity:1;" d="M 655.304688 54.570312 C 655.304688 55.167969 655.246094 55.757812 655.128906 56.34375 C 655.015625 56.929688 654.84375 57.496094 654.613281 58.046875 C 654.386719 58.597656 654.109375 59.121094 653.777344 59.617188 C 653.445312 60.113281 653.070312 60.570312 652.652344 60.992188 C 652.230469 61.414062 651.773438 61.789062 651.277344 62.121094 C 650.785156 62.453125 650.261719 62.734375 649.714844 62.960938 C 649.164062 63.1875 648.597656 63.363281 648.015625 63.476562 C 647.429688 63.59375 646.84375 63.652344 646.246094 63.652344 C 645.652344 63.652344 645.0625 63.59375 644.480469 63.476562 C 643.898438 63.363281 643.332031 63.1875 642.78125 62.960938 C 642.230469 62.734375 641.710938 62.453125 641.214844 62.121094 C 640.722656 61.789062 640.265625 61.414062 639.84375 60.992188 C 639.421875 60.570312 639.046875 60.113281 638.71875 59.617188 C 638.386719 59.121094 638.109375 58.597656 637.878906 58.046875 C 637.652344 57.496094 637.480469 56.929688 637.363281 56.34375 C 637.25 55.757812 637.191406 55.167969 637.191406 54.570312 C 637.191406 53.976562 637.25 53.386719 637.363281 52.800781 C 637.480469 52.214844 637.652344 51.648438 637.878906 51.097656 C 638.109375 50.546875 638.386719 50.023438 638.71875 49.527344 C 639.046875 49.03125 639.421875 48.574219 639.84375 48.152344 C 640.265625 47.730469 640.722656 47.351562 641.214844 47.023438 C 641.710938 46.691406 642.230469 46.410156 642.78125 46.183594 C 643.332031 45.953125 643.898438 45.78125 644.480469 45.664062 C 645.0625 45.550781 645.652344 45.492188 646.246094 45.492188 C 646.84375 45.492188 647.429688 45.550781 648.015625 45.664062 C 648.597656 45.78125 649.164062 45.953125 649.714844 46.183594 C 650.261719 46.410156 650.785156 46.691406 651.277344 47.023438 C 651.773438 47.351562 652.230469 47.730469 652.652344 48.152344 C 653.070312 48.574219 653.445312 49.03125 653.777344 49.527344 C 654.109375 50.023438 654.386719 50.546875 654.613281 51.097656 C 654.84375 51.648438 655.015625 52.214844 655.128906 52.800781 C 655.246094 53.386719 655.304688 53.976562 655.304688 54.570312 Z M 655.304688 54.570312 "/></g></svg>