<svg xmlns="http://www.w3.org/2000/svg" xmlns:xlink="http://www.w3.org/1999/xlink" width="1366" zoomAndPan="magnify" viewBox="0 0 1024.5 108.75" height="145" preserveAspectRatio="xMidYMid meet" version="1.2"><defs><clipPath id="b5bbfccb19"><path d="M 38.511719 39.960938 L 985.835938 39.960938 L 985.835938 74.660156 L 38.511719 74.660156 Z M 38.511719 39.960938 "/></clipPath><clipPath id="5ed3af932c"><path d="M 0.925781 103 L 11.957031 103 L 11.957031 108.5 L 0.925781 108.5 Z M 0.925781 103 "/></clipPath></defs><g id="a66bbd0d9d"><g clip-rule="nonzero" clip-path="url(#b5bbfccb19)"><path style=" stroke:none;fill-rule:nonzero;fill:#000000;fill-opacity:1;" d="M 550.757812 57.3125 C 550.757812 56.53125 551.398438 55.898438 552.1875 55.898438 L 950.59375 55.898438 L 958.753906 47.816406 L 966.914062 55.898438 L 974.144531 55.898438 C 974.785156 53.335938 977.105469 51.429688 979.890625 51.429688 C 983.175781 51.429688 985.835938 54.0625 985.835938 57.3125 C 985.835938 60.558594 983.175781 63.191406 979.890625 63.191406 C 977.105469 63.191406 974.785156 61.285156 974.144531 58.726562 L 966.914062 58.726562 L 958.753906 66.804688 L 950.59375 58.726562 L 552.1875 58.726562 C 551.398438 58.726562 550.757812 58.09375 550.757812 57.3125 Z M 473.585938 57.3125 C 473.585938 58.09375 472.949219 58.726562 472.160156 58.726562 L 73.757812 58.726562 L 65.59375 66.804688 L 57.433594 58.726562 L 50.199219 58.726562 C 49.558594 61.285156 47.238281 63.191406 44.453125 63.191406 C 41.171875 63.191406 38.511719 60.5625 38.511719 57.3125 C 38.511719 54.0625 41.171875 51.429688 44.453125 51.429688 C 47.238281 51.429688 49.558594 53.335938 50.199219 55.898438 L 57.433594 55.898438 L 65.59375 47.816406 L 73.757812 55.898438 L 472.160156 55.898438 C 472.949219 55.898438 473.585938 56.53125 473.585938 57.3125 Z M 532.035156 51.414062 C 532.035156 52.679688 544.328125 57.3125 545.605469 57.3125 C 544.328125 57.3125 532.035156 61.945312 532.035156 63.207031 C 532.035156 61.945312 527.355469 57.3125 526.078125 57.3125 C 527.355469 57.3125 532.035156 52.679688 532.035156 51.414062 Z M 492.308594 63.207031 C 492.308594 61.945312 480.015625 57.3125 478.742188 57.3125 C 480.015625 57.3125 492.308594 52.675781 492.308594 51.414062 C 492.308594 52.675781 496.988281 57.3125 498.269531 57.3125 C 496.988281 57.3125 492.308594 61.945312 492.308594 63.207031 Z M 502.429688 57.308594 L 512.171875 46.582031 L 521.914062 57.308594 L 512.171875 68.03125 Z M 512.171875 39.960938 L 499.613281 57.308594 L 512.171875 74.660156 L 524.734375 57.308594 L 512.171875 39.960938 "/></g><g clip-rule="nonzero" clip-path="url(#5ed3af932c)"><path style=" stroke:none;fill-rule:nonzero;fill:#000000;fill-opacity:1;" d="M 11.90625 122.160156 C 11.664062 121.191406 9.800781 118.53125 9.078125 117.878906 C 7.046875 115.898438 5.121094 113.804688 2.835938 112.101562 C -15.976562 97.738281 -41.730469 104.320312 -61.570312 113.011719 C -64.96875 114.488281 -68.226562 116.167969 -71.757812 117.300781 C -75.535156 118.519531 -79.410156 119.570312 -83.332031 120.351562 C -84.242188 117.328125 -86.050781 114.628906 -89.074219 112.671875 C -93.625 109.886719 -101.859375 109.972656 -106.226562 113.058594 C -107.519531 113.949219 -108.609375 115.359375 -108.976562 116.945312 C -109.832031 120.210938 -107.390625 122.226562 -104.558594 122.980469 C -98.773438 124.457031 -91.46875 123.605469 -85.222656 122.476562 C -84.5625 126.210938 -85.273438 130.183594 -86.585938 133.707031 C -87.070312 135.007812 -87.851562 137.136719 -88.34375 138.472656 C -88.894531 140.15625 -86.480469 140.976562 -85.867188 139.355469 C -85.546875 138.453125 -84.824219 136.332031 -84.507812 135.441406 C -82.894531 131.234375 -82.089844 126.394531 -82.914062 122.039062 C -82.621094 121.980469 -82.328125 121.921875 -82.039062 121.863281 C -76.546875 120.660156 -71.097656 119.140625 -65.964844 116.796875 C -64.28125 116.003906 -62.617188 115.226562 -60.921875 114.488281 C -41.554688 106.03125 -16.503906 99.390625 1.878906 113.339844 C 3.992188 115.039062 6.128906 116.824219 7.699219 119.054688 C 8.207031 119.8125 9.289062 120.941406 8.851562 121.792969 C 8.65625 122.152344 8.59375 122.574219 8.707031 123 C 8.941406 123.882812 9.847656 124.40625 10.730469 124.175781 C 11.613281 123.941406 12.140625 123.035156 11.90625 122.152344 Z M -98.757812 121.875 C -101.320312 121.730469 -104.105469 121.574219 -106.203125 120.125 C -107.5 119.183594 -107.355469 117.660156 -106.65625 116.371094 C -105.378906 114.207031 -102.773438 113.371094 -100.316406 112.972656 C -96.980469 112.542969 -93.207031 112.757812 -90.285156 114.519531 C -88.171875 115.933594 -86.523438 118.007812 -85.730469 120.429688 C -85.695312 120.546875 -85.664062 120.664062 -85.628906 120.78125 C -89.972656 121.527344 -94.371094 121.933594 -98.761719 121.875 Z M -98.757812 121.875 "/></g></g></svg>