<svg xmlns="http://www.w3.org/2000/svg" xmlns:xlink="http://www.w3.org/1999/xlink" width="500" zoomAndPan="magnify" viewBox="0 0 375 374.999991" height="500" preserveAspectRatio="xMidYMid meet" version="1.2"><defs><clipPath id="471de73357"><path d="M 137 256 L 240 256 L 240 345 L 137 345 Z M 137 256 "/></clipPath><clipPath id="3699301144"><path d="M 241.308594 258.226562 L 239.25 361.703125 L 133.519531 359.601562 L 135.578125 256.121094 Z M 241.308594 258.226562 "/></clipPath><clipPath id="5fe0aeb65a"><path d="M 241.308594 258.226562 L 239.25 361.703125 L 133.519531 359.601562 L 135.578125 256.121094 Z M 241.308594 258.226562 "/></clipPath><clipPath id="4cac47295d"><path d="M 135 268 L 242 268 L 242 361 L 135 361 Z M 135 268 "/></clipPath><clipPath id="cecf0e2a92"><path d="M 241.308594 258.226562 L 239.25 361.703125 L 133.519531 359.601562 L 135.578125 256.121094 Z M 241.308594 258.226562 "/></clipPath><clipPath id="3cf52028ce"><path d="M 241.308594 258.226562 L 239.25 361.703125 L 133.519531 359.601562 L 135.578125 256.121094 Z M 241.308594 258.226562 "/></clipPath><clipPath id="f2e7038f2a"><path d="M 165.628906 122.445312 L 209.128906 122.445312 L 209.128906 165.945312 L 165.628906 165.945312 Z M 165.628906 122.445312 "/></clipPath></defs><g id="1f833744cb"><path style="fill:none;stroke-width:10;stroke-linecap:butt;stroke-linejoin:miter;stroke:#000000;stroke-opacity:1;stroke-miterlimit:4;" d="M -0.00127608 4.9987 L 331.644579 4.9987 " transform="matrix(0,0.75,-0.75,0,191.249025,37.500957)"/><g clip-rule="nonzero" clip-path="url(#471de73357)"><g clip-rule="nonzero" clip-path="url(#3699301144)"><g clip-rule="nonzero" clip-path="url(#5fe0aeb65a)"><path style=" stroke:none;fill-rule:nonzero;fill:#2f79a5;fill-opacity:1;" d="M 239.0625 258.238281 L 186.121094 344.285156 L 137.925781 256.226562 L 188.097656 277.140625 L 239.0625 258.238281 "/></g></g></g><g clip-rule="nonzero" clip-path="url(#4cac47295d)"><g clip-rule="nonzero" clip-path="url(#cecf0e2a92)"><g clip-rule="nonzero" clip-path="url(#3cf52028ce)"><path style=" stroke:none;fill-rule:nonzero;fill:#000000;fill-opacity:1;" d="M 236.882812 271.257812 C 233.21875 277.210938 229.558594 283.160156 225.894531 289.113281 C 218.46875 301.1875 211.039062 313.261719 203.609375 325.332031 C 197.757812 334.847656 191.90625 344.355469 186.054688 353.867188 C 185.351562 355.011719 184.644531 356.15625 183.941406 357.304688 L 187.78125 357.378906 C 184.414062 351.222656 181.046875 345.066406 177.675781 338.910156 C 170.867188 326.472656 164.058594 314.03125 157.25 301.59375 C 151.949219 291.910156 146.652344 282.230469 141.351562 272.546875 C 140.765625 271.472656 140.175781 270.394531 139.585938 269.320312 C 138.726562 270.394531 137.867188 271.464844 137.007812 272.535156 C 146.496094 276.492188 155.984375 280.449219 165.46875 284.402344 C 171.238281 286.804688 177.007812 289.210938 182.777344 291.617188 C 184.140625 292.183594 185.503906 292.753906 186.867188 293.320312 C 187.800781 293.707031 188.53125 293.414062 189.394531 293.09375 C 200.769531 288.871094 212.144531 284.65625 223.519531 280.4375 C 228.789062 278.480469 234.058594 276.527344 239.328125 274.574219 C 240.464844 274.152344 241.257812 273.136719 240.9375 271.867188 C 240.664062 270.789062 239.371094 269.839844 238.234375 270.261719 C 228.59375 273.835938 218.960938 277.410156 209.324219 280.984375 C 201.972656 283.710938 194.621094 286.4375 187.269531 289.164062 L 188.449219 289.1875 C 178.964844 285.230469 169.476562 281.277344 159.988281 277.320312 C 152.753906 274.304688 145.515625 271.289062 138.277344 268.273438 C 136.386719 267.484375 134.839844 269.914062 135.703125 271.488281 C 139.070312 277.644531 142.441406 283.800781 145.808594 289.953125 C 152.617188 302.394531 159.425781 314.835938 166.234375 327.273438 C 171.53125 336.957031 176.832031 346.636719 182.132812 356.316406 C 182.71875 357.394531 183.308594 358.46875 183.898438 359.546875 C 184.703125 361.015625 186.871094 361.035156 187.738281 359.621094 C 191.402344 353.667969 195.0625 347.714844 198.726562 341.761719 C 206.15625 329.691406 213.582031 317.617188 221.011719 305.546875 C 226.863281 296.035156 232.714844 286.519531 238.566406 277.007812 C 239.273438 275.867188 239.976562 274.722656 240.679688 273.578125 C 242.183594 271.128906 238.386719 268.816406 236.882812 271.257812 "/></g></g></g><path style=" stroke:none;fill-rule:nonzero;fill:#2f79a5;fill-opacity:1;" d="M 197.316406 144.339844 C 197.316406 144.980469 197.253906 145.617188 197.128906 146.25 C 197 146.878906 196.816406 147.492188 196.570312 148.085938 C 196.324219 148.679688 196.023438 149.242188 195.664062 149.777344 C 195.308594 150.3125 194.902344 150.808594 194.449219 151.261719 C 193.992188 151.714844 193.5 152.121094 192.964844 152.480469 C 192.429688 152.835938 191.863281 153.136719 191.269531 153.382812 C 190.675781 153.628906 190.066406 153.816406 189.433594 153.941406 C 188.804688 154.066406 188.167969 154.128906 187.523438 154.128906 C 186.882812 154.128906 186.246094 154.066406 185.613281 153.941406 C 184.984375 153.816406 184.371094 153.628906 183.777344 153.382812 C 183.183594 153.136719 182.617188 152.835938 182.085938 152.480469 C 181.550781 152.121094 181.054688 151.714844 180.601562 151.261719 C 180.144531 150.808594 179.738281 150.3125 179.382812 149.777344 C 179.027344 149.242188 178.722656 148.679688 178.476562 148.085938 C 178.230469 147.492188 178.046875 146.878906 177.921875 146.25 C 177.796875 145.617188 177.734375 144.980469 177.734375 144.339844 C 177.734375 143.695312 177.796875 143.058594 177.921875 142.429688 C 178.046875 141.796875 178.230469 141.183594 178.476562 140.589844 C 178.722656 139.996094 179.027344 139.433594 179.382812 138.898438 C 179.738281 138.363281 180.144531 137.871094 180.601562 137.414062 C 181.054688 136.960938 181.550781 136.554688 182.085938 136.199219 C 182.617188 135.839844 183.183594 135.539062 183.777344 135.292969 C 184.371094 135.046875 184.984375 134.859375 185.613281 134.734375 C 186.246094 134.609375 186.882812 134.546875 187.523438 134.546875 C 188.167969 134.546875 188.804688 134.609375 189.433594 134.734375 C 190.066406 134.859375 190.675781 135.046875 191.269531 135.292969 C 191.863281 135.539062 192.429688 135.839844 192.964844 136.199219 C 193.5 136.554688 193.992188 136.960938 194.449219 137.414062 C 194.902344 137.871094 195.308594 138.363281 195.664062 138.898438 C 196.023438 139.433594 196.324219 139.996094 196.570312 140.589844 C 196.816406 141.183594 197 141.796875 197.128906 142.429688 C 197.253906 143.058594 197.316406 143.695312 197.316406 144.339844 Z M 197.316406 144.339844 "/><g clip-rule="nonzero" clip-path="url(#f2e7038f2a)"><path style=" stroke:none;fill-rule:nonzero;fill:#2f79a5;fill-opacity:1;" d="M 187.523438 166.234375 C 175.449219 166.234375 165.628906 156.414062 165.628906 144.339844 C 165.628906 132.269531 175.449219 122.445312 187.523438 122.445312 C 199.597656 122.445312 209.417969 132.265625 209.417969 144.339844 C 209.417969 156.414062 199.59375 166.234375 187.523438 166.234375 Z M 187.523438 124.621094 C 176.648438 124.621094 167.804688 133.464844 167.804688 144.339844 C 167.804688 155.214844 176.648438 164.058594 187.523438 164.058594 C 198.398438 164.058594 207.242188 155.214844 207.242188 144.339844 C 207.242188 133.464844 198.398438 124.621094 187.523438 124.621094 Z M 187.523438 124.621094 "/></g><g style="fill:#000000;fill-opacity:1;"><g transform="translate(25.268222, 56.500016)"><path style="stroke:none" d="M 4.78125 0 L 1.796875 0 L 1.796875 -14.28125 L 9.984375 -14.28125 L 9.984375 -11.796875 L 4.78125 -11.796875 L 4.78125 -8.109375 L 9.625 -8.109375 L 9.625 -5.640625 L 4.78125 -5.640625 Z M 4.78125 0 "/></g></g><g style="fill:#000000;fill-opacity:1;"><g transform="translate(36.240496, 56.500016)"><path style="stroke:none" d="M 6.0625 -11.125 C 7.070312 -11.125 7.941406 -10.929688 8.671875 -10.546875 C 9.398438 -10.160156 9.960938 -9.597656 10.359375 -8.859375 C 10.753906 -8.117188 10.953125 -7.21875 10.953125 -6.15625 L 10.953125 -4.71875 L 3.921875 -4.71875 C 3.953125 -3.875 4.203125 -3.210938 4.671875 -2.734375 C 5.140625 -2.253906 5.796875 -2.015625 6.640625 -2.015625 C 7.335938 -2.015625 7.972656 -2.085938 8.546875 -2.234375 C 9.128906 -2.378906 9.726562 -2.59375 10.34375 -2.875 L 10.34375 -0.578125 C 9.800781 -0.304688 9.234375 -0.109375 8.640625 0.015625 C 8.054688 0.140625 7.34375 0.203125 6.5 0.203125 C 5.40625 0.203125 4.4375 0 3.59375 -0.40625 C 2.75 -0.8125 2.085938 -1.425781 1.609375 -2.25 C 1.140625 -3.082031 0.90625 -4.125 0.90625 -5.375 C 0.90625 -6.65625 1.117188 -7.71875 1.546875 -8.5625 C 1.984375 -9.414062 2.585938 -10.054688 3.359375 -10.484375 C 4.128906 -10.910156 5.03125 -11.125 6.0625 -11.125 Z M 6.078125 -9 C 5.503906 -9 5.023438 -8.8125 4.640625 -8.4375 C 4.265625 -8.070312 4.046875 -7.492188 3.984375 -6.703125 L 8.171875 -6.703125 C 8.160156 -7.140625 8.078125 -7.53125 7.921875 -7.875 C 7.773438 -8.226562 7.546875 -8.503906 7.234375 -8.703125 C 6.929688 -8.898438 6.546875 -9 6.078125 -9 Z M 6.078125 -9 "/></g></g><g style="fill:#000000;fill-opacity:1;"><g transform="translate(48.052286, 56.500016)"><path style="stroke:none" d="M 4.546875 -15.203125 L 4.546875 -11.65625 C 4.546875 -11.25 4.53125 -10.84375 4.5 -10.4375 C 4.476562 -10.03125 4.453125 -9.71875 4.421875 -9.5 L 4.546875 -9.5 C 4.828125 -9.945312 5.210938 -10.328125 5.703125 -10.640625 C 6.203125 -10.960938 6.847656 -11.125 7.640625 -11.125 C 8.859375 -11.125 9.847656 -10.644531 10.609375 -9.6875 C 11.378906 -8.726562 11.765625 -7.328125 11.765625 -5.484375 C 11.765625 -4.234375 11.585938 -3.1875 11.234375 -2.34375 C 10.878906 -1.5 10.382812 -0.863281 9.75 -0.4375 C 9.125 -0.0078125 8.394531 0.203125 7.5625 0.203125 C 6.757812 0.203125 6.125 0.0546875 5.65625 -0.234375 C 5.195312 -0.523438 4.828125 -0.847656 4.546875 -1.203125 L 4.34375 -1.203125 L 3.84375 0 L 1.5625 0 L 1.5625 -15.203125 Z M 6.6875 -8.734375 C 6.164062 -8.734375 5.75 -8.625 5.4375 -8.40625 C 5.132812 -8.195312 4.910156 -7.878906 4.765625 -7.453125 C 4.628906 -7.023438 4.554688 -6.484375 4.546875 -5.828125 L 4.546875 -5.5 C 4.546875 -4.4375 4.703125 -3.625 5.015625 -3.0625 C 5.328125 -2.5 5.894531 -2.21875 6.71875 -2.21875 C 7.332031 -2.21875 7.816406 -2.5 8.171875 -3.0625 C 8.535156 -3.632812 8.71875 -4.453125 8.71875 -5.515625 C 8.71875 -6.585938 8.535156 -7.390625 8.171875 -7.921875 C 7.804688 -8.460938 7.3125 -8.734375 6.6875 -8.734375 Z M 6.6875 -8.734375 "/></g></g><g style="fill:#000000;fill-opacity:1;"><g transform="translate(60.703591, 56.500016)"><path style="stroke:none" d="M 7.65625 -11.125 C 7.800781 -11.125 7.972656 -11.113281 8.171875 -11.09375 C 8.378906 -11.082031 8.539062 -11.0625 8.65625 -11.03125 L 8.4375 -8.25 C 8.34375 -8.28125 8.203125 -8.300781 8.015625 -8.3125 C 7.835938 -8.332031 7.6875 -8.34375 7.5625 -8.34375 C 7.175781 -8.34375 6.800781 -8.289062 6.4375 -8.1875 C 6.082031 -8.09375 5.757812 -7.9375 5.46875 -7.71875 C 5.1875 -7.5 4.960938 -7.210938 4.796875 -6.859375 C 4.628906 -6.503906 4.546875 -6.070312 4.546875 -5.5625 L 4.546875 0 L 1.5625 0 L 1.5625 -10.921875 L 3.8125 -10.921875 L 4.265625 -9.078125 L 4.40625 -9.078125 C 4.625 -9.453125 4.890625 -9.789062 5.203125 -10.09375 C 5.523438 -10.40625 5.894531 -10.65625 6.3125 -10.84375 C 6.726562 -11.03125 7.175781 -11.125 7.65625 -11.125 Z M 7.65625 -11.125 "/></g></g><g style="fill:#000000;fill-opacity:1;"><g transform="translate(69.782074, 56.500016)"><path style="stroke:none" d="M 6.0625 -11.125 C 7.070312 -11.125 7.941406 -10.929688 8.671875 -10.546875 C 9.398438 -10.160156 9.960938 -9.597656 10.359375 -8.859375 C 10.753906 -8.117188 10.953125 -7.21875 10.953125 -6.15625 L 10.953125 -4.71875 L 3.921875 -4.71875 C 3.953125 -3.875 4.203125 -3.210938 4.671875 -2.734375 C 5.140625 -2.253906 5.796875 -2.015625 6.640625 -2.015625 C 7.335938 -2.015625 7.972656 -2.085938 8.546875 -2.234375 C 9.128906 -2.378906 9.726562 -2.59375 10.34375 -2.875 L 10.34375 -0.578125 C 9.800781 -0.304688 9.234375 -0.109375 8.640625 0.015625 C 8.054688 0.140625 7.34375 0.203125 6.5 0.203125 C 5.40625 0.203125 4.4375 0 3.59375 -0.40625 C 2.75 -0.8125 2.085938 -1.425781 1.609375 -2.25 C 1.140625 -3.082031 0.90625 -4.125 0.90625 -5.375 C 0.90625 -6.65625 1.117188 -7.71875 1.546875 -8.5625 C 1.984375 -9.414062 2.585938 -10.054688 3.359375 -10.484375 C 4.128906 -10.910156 5.03125 -11.125 6.0625 -11.125 Z M 6.078125 -9 C 5.503906 -9 5.023438 -8.8125 4.640625 -8.4375 C 4.265625 -8.070312 4.046875 -7.492188 3.984375 -6.703125 L 8.171875 -6.703125 C 8.160156 -7.140625 8.078125 -7.53125 7.921875 -7.875 C 7.773438 -8.226562 7.546875 -8.503906 7.234375 -8.703125 C 6.929688 -8.898438 6.546875 -9 6.078125 -9 Z M 6.078125 -9 "/></g></g><g style="fill:#000000;fill-opacity:1;"><g transform="translate(81.593864, 56.500016)"><path style="stroke:none" d="M 7.65625 -11.125 C 7.800781 -11.125 7.972656 -11.113281 8.171875 -11.09375 C 8.378906 -11.082031 8.539062 -11.0625 8.65625 -11.03125 L 8.4375 -8.25 C 8.34375 -8.28125 8.203125 -8.300781 8.015625 -8.3125 C 7.835938 -8.332031 7.6875 -8.34375 7.5625 -8.34375 C 7.175781 -8.34375 6.800781 -8.289062 6.4375 -8.1875 C 6.082031 -8.09375 5.757812 -7.9375 5.46875 -7.71875 C 5.1875 -7.5 4.960938 -7.210938 4.796875 -6.859375 C 4.628906 -6.503906 4.546875 -6.070312 4.546875 -5.5625 L 4.546875 0 L 1.5625 0 L 1.5625 -10.921875 L 3.8125 -10.921875 L 4.265625 -9.078125 L 4.40625 -9.078125 C 4.625 -9.453125 4.890625 -9.789062 5.203125 -10.09375 C 5.523438 -10.40625 5.894531 -10.65625 6.3125 -10.84375 C 6.726562 -11.03125 7.175781 -11.125 7.65625 -11.125 Z M 7.65625 -11.125 "/></g></g><g style="fill:#000000;fill-opacity:1;"><g transform="translate(90.672347, 56.500016)"><path style="stroke:none" d="M 11.484375 -5.484375 C 11.484375 -4.566406 11.359375 -3.753906 11.109375 -3.046875 C 10.867188 -2.347656 10.515625 -1.753906 10.046875 -1.265625 C 9.585938 -0.785156 9.03125 -0.421875 8.375 -0.171875 C 7.71875 0.078125 6.976562 0.203125 6.15625 0.203125 C 5.394531 0.203125 4.691406 0.078125 4.046875 -0.171875 C 3.410156 -0.421875 2.851562 -0.785156 2.375 -1.265625 C 1.90625 -1.753906 1.539062 -2.347656 1.28125 -3.046875 C 1.03125 -3.753906 0.90625 -4.566406 0.90625 -5.484375 C 0.90625 -6.691406 1.117188 -7.710938 1.546875 -8.546875 C 1.972656 -9.390625 2.582031 -10.03125 3.375 -10.46875 C 4.175781 -10.90625 5.125 -11.125 6.21875 -11.125 C 7.238281 -11.125 8.144531 -10.90625 8.9375 -10.46875 C 9.726562 -10.03125 10.347656 -9.390625 10.796875 -8.546875 C 11.253906 -7.710938 11.484375 -6.691406 11.484375 -5.484375 Z M 3.9375 -5.484375 C 3.9375 -4.765625 4.015625 -4.160156 4.171875 -3.671875 C 4.328125 -3.179688 4.570312 -2.8125 4.90625 -2.5625 C 5.238281 -2.320312 5.671875 -2.203125 6.203125 -2.203125 C 6.734375 -2.203125 7.160156 -2.320312 7.484375 -2.5625 C 7.816406 -2.8125 8.054688 -3.179688 8.203125 -3.671875 C 8.359375 -4.160156 8.4375 -4.765625 8.4375 -5.484375 C 8.4375 -6.203125 8.359375 -6.800781 8.203125 -7.28125 C 8.054688 -7.757812 7.816406 -8.117188 7.484375 -8.359375 C 7.148438 -8.597656 6.71875 -8.71875 6.1875 -8.71875 C 5.394531 -8.71875 4.820312 -8.445312 4.46875 -7.90625 C 4.113281 -7.363281 3.9375 -6.554688 3.9375 -5.484375 Z M 3.9375 -5.484375 "/></g></g><g style="fill:#000000;fill-opacity:1;"><g transform="translate(103.050322, 56.500016)"><path style="stroke:none" d=""/></g></g><g style="fill:#000000;fill-opacity:1;"><g transform="translate(108.243604, 56.500016)"><path style="stroke:none" d="M 0.59375 -4.140625 L 0.59375 -6.578125 L 5.84375 -6.578125 L 5.84375 -4.140625 Z M 0.59375 -4.140625 "/></g></g><g style="fill:#000000;fill-opacity:1;"><g transform="translate(114.676637, 56.500016)"><path style="stroke:none" d=""/></g></g><g style="fill:#000000;fill-opacity:1;"><g transform="translate(119.86992, 56.500016)"><path style="stroke:none" d="M 10.78125 0 L 0.796875 0 L 0.796875 -2.09375 L 4.390625 -5.71875 C 5.109375 -6.46875 5.6875 -7.085938 6.125 -7.578125 C 6.5625 -8.078125 6.878906 -8.53125 7.078125 -8.9375 C 7.285156 -9.351562 7.390625 -9.796875 7.390625 -10.265625 C 7.390625 -10.828125 7.226562 -11.25 6.90625 -11.53125 C 6.59375 -11.820312 6.171875 -11.96875 5.640625 -11.96875 C 5.085938 -11.96875 4.550781 -11.835938 4.03125 -11.578125 C 3.507812 -11.328125 2.96875 -10.96875 2.40625 -10.5 L 0.765625 -12.4375 C 1.171875 -12.789062 1.601562 -13.125 2.0625 -13.4375 C 2.519531 -13.75 3.050781 -14 3.65625 -14.1875 C 4.269531 -14.382812 5.003906 -14.484375 5.859375 -14.484375 C 6.796875 -14.484375 7.597656 -14.3125 8.265625 -13.96875 C 8.941406 -13.632812 9.460938 -13.175781 9.828125 -12.59375 C 10.191406 -12.007812 10.375 -11.347656 10.375 -10.609375 C 10.375 -9.828125 10.21875 -9.109375 9.90625 -8.453125 C 9.59375 -7.804688 9.140625 -7.160156 8.546875 -6.515625 C 7.953125 -5.878906 7.234375 -5.175781 6.390625 -4.40625 L 4.5625 -2.671875 L 4.5625 -2.546875 L 10.78125 -2.546875 Z M 10.78125 0 "/></g></g><g style="fill:#000000;fill-opacity:1;"><g transform="translate(131.300999, 56.500016)"><path style="stroke:none" d="M 10.703125 -7.140625 C 10.703125 -5.984375 10.613281 -4.953125 10.4375 -4.046875 C 10.257812 -3.148438 9.972656 -2.382812 9.578125 -1.75 C 9.179688 -1.113281 8.664062 -0.628906 8.03125 -0.296875 C 7.394531 0.0351562 6.617188 0.203125 5.703125 0.203125 C 4.554688 0.203125 3.613281 -0.0859375 2.875 -0.671875 C 2.144531 -1.253906 1.601562 -2.09375 1.25 -3.1875 C 0.894531 -4.289062 0.71875 -5.609375 0.71875 -7.140625 C 0.71875 -8.679688 0.878906 -10 1.203125 -11.09375 C 1.523438 -12.195312 2.050781 -13.039062 2.78125 -13.625 C 3.507812 -14.207031 4.484375 -14.5 5.703125 -14.5 C 6.835938 -14.5 7.773438 -14.207031 8.515625 -13.625 C 9.253906 -13.039062 9.800781 -12.203125 10.15625 -11.109375 C 10.519531 -10.015625 10.703125 -8.691406 10.703125 -7.140625 Z M 3.71875 -7.140625 C 3.71875 -6.054688 3.773438 -5.148438 3.890625 -4.421875 C 4.015625 -3.691406 4.21875 -3.144531 4.5 -2.78125 C 4.789062 -2.414062 5.191406 -2.234375 5.703125 -2.234375 C 6.203125 -2.234375 6.597656 -2.414062 6.890625 -2.78125 C 7.179688 -3.144531 7.390625 -3.6875 7.515625 -4.40625 C 7.640625 -5.132812 7.703125 -6.046875 7.703125 -7.140625 C 7.703125 -8.222656 7.640625 -9.128906 7.515625 -9.859375 C 7.390625 -10.585938 7.179688 -11.132812 6.890625 -11.5 C 6.597656 -11.875 6.203125 -12.0625 5.703125 -12.0625 C 5.191406 -12.0625 4.789062 -11.875 4.5 -11.5 C 4.21875 -11.132812 4.015625 -10.585938 3.890625 -9.859375 C 3.773438 -9.128906 3.71875 -8.222656 3.71875 -7.140625 Z M 3.71875 -7.140625 "/></g></g><g style="fill:#000000;fill-opacity:1;"><g transform="translate(142.732078, 56.500016)"><path style="stroke:none" d="M 10.78125 0 L 0.796875 0 L 0.796875 -2.09375 L 4.390625 -5.71875 C 5.109375 -6.46875 5.6875 -7.085938 6.125 -7.578125 C 6.5625 -8.078125 6.878906 -8.53125 7.078125 -8.9375 C 7.285156 -9.351562 7.390625 -9.796875 7.390625 -10.265625 C 7.390625 -10.828125 7.226562 -11.25 6.90625 -11.53125 C 6.59375 -11.820312 6.171875 -11.96875 5.640625 -11.96875 C 5.085938 -11.96875 4.550781 -11.835938 4.03125 -11.578125 C 3.507812 -11.328125 2.96875 -10.96875 2.40625 -10.5 L 0.765625 -12.4375 C 1.171875 -12.789062 1.601562 -13.125 2.0625 -13.4375 C 2.519531 -13.75 3.050781 -14 3.65625 -14.1875 C 4.269531 -14.382812 5.003906 -14.484375 5.859375 -14.484375 C 6.796875 -14.484375 7.597656 -14.3125 8.265625 -13.96875 C 8.941406 -13.632812 9.460938 -13.175781 9.828125 -12.59375 C 10.191406 -12.007812 10.375 -11.347656 10.375 -10.609375 C 10.375 -9.828125 10.21875 -9.109375 9.90625 -8.453125 C 9.59375 -7.804688 9.140625 -7.160156 8.546875 -6.515625 C 7.953125 -5.878906 7.234375 -5.175781 6.390625 -4.40625 L 4.5625 -2.671875 L 4.5625 -2.546875 L 10.78125 -2.546875 Z M 10.78125 0 "/></g></g><g style="fill:#000000;fill-opacity:1;"><g transform="translate(154.163157, 56.500016)"><path style="stroke:none" d="M 6 -9.125 C 6.875 -9.125 7.648438 -8.957031 8.328125 -8.625 C 9.003906 -8.289062 9.535156 -7.800781 9.921875 -7.15625 C 10.316406 -6.507812 10.515625 -5.71875 10.515625 -4.78125 C 10.515625 -3.75 10.300781 -2.859375 9.875 -2.109375 C 9.445312 -1.367188 8.8125 -0.796875 7.96875 -0.390625 C 7.125 0.00390625 6.078125 0.203125 4.828125 0.203125 C 4.078125 0.203125 3.367188 0.132812 2.703125 0 C 2.046875 -0.125 1.472656 -0.316406 0.984375 -0.578125 L 0.984375 -3.1875 C 1.472656 -2.925781 2.0625 -2.703125 2.75 -2.515625 C 3.445312 -2.335938 4.101562 -2.25 4.71875 -2.25 C 5.3125 -2.25 5.8125 -2.328125 6.21875 -2.484375 C 6.632812 -2.648438 6.945312 -2.898438 7.15625 -3.234375 C 7.375 -3.566406 7.484375 -3.992188 7.484375 -4.515625 C 7.484375 -5.210938 7.25 -5.75 6.78125 -6.125 C 6.3125 -6.5 5.59375 -6.6875 4.625 -6.6875 C 4.25 -6.6875 3.859375 -6.648438 3.453125 -6.578125 C 3.054688 -6.503906 2.726562 -6.429688 2.46875 -6.359375 L 1.265625 -7 L 1.796875 -14.28125 L 9.546875 -14.28125 L 9.546875 -11.71875 L 4.4375 -11.71875 L 4.1875 -8.921875 C 4.40625 -8.960938 4.644531 -9.003906 4.90625 -9.046875 C 5.164062 -9.097656 5.53125 -9.125 6 -9.125 Z M 6 -9.125 "/></g></g><g style="fill:#000000;fill-opacity:1;"><g transform="translate(234.053938, 344.624977)"><path style="stroke:none" d="M 0.296875 4.203125 C -0.0859375 4.203125 -0.425781 4.179688 -0.71875 4.140625 C -1.019531 4.097656 -1.273438 4.046875 -1.484375 3.984375 L -1.484375 1.46875 C -1.273438 1.507812 -1.050781 1.550781 -0.8125 1.59375 C -0.570312 1.632812 -0.320312 1.65625 -0.0625 1.65625 C 0.289062 1.65625 0.609375 1.585938 0.890625 1.453125 C 1.171875 1.328125 1.390625 1.078125 1.546875 0.703125 C 1.710938 0.328125 1.796875 -0.207031 1.796875 -0.90625 L 1.796875 -14.28125 L 4.828125 -14.28125 L 4.828125 -0.921875 C 4.828125 0.304688 4.632812 1.296875 4.25 2.046875 C 3.875 2.796875 3.34375 3.34375 2.65625 3.6875 C 1.976562 4.03125 1.191406 4.203125 0.296875 4.203125 Z M 0.296875 4.203125 "/></g></g><g style="fill:#000000;fill-opacity:1;"><g transform="translate(240.672445, 344.624977)"><path style="stroke:none" d="M 11.578125 -10.921875 L 11.578125 0 L 9.296875 0 L 8.890625 -1.390625 L 8.734375 -1.390625 C 8.503906 -1.023438 8.210938 -0.722656 7.859375 -0.484375 C 7.503906 -0.253906 7.113281 -0.0820312 6.6875 0.03125 C 6.269531 0.144531 5.832031 0.203125 5.375 0.203125 C 4.59375 0.203125 3.910156 0.0625 3.328125 -0.21875 C 2.753906 -0.5 2.304688 -0.929688 1.984375 -1.515625 C 1.660156 -2.097656 1.5 -2.859375 1.5 -3.796875 L 1.5 -10.921875 L 4.484375 -10.921875 L 4.484375 -4.546875 C 4.484375 -3.765625 4.625 -3.171875 4.90625 -2.765625 C 5.1875 -2.367188 5.628906 -2.171875 6.234375 -2.171875 C 6.847656 -2.171875 7.328125 -2.3125 7.671875 -2.59375 C 8.015625 -2.875 8.253906 -3.28125 8.390625 -3.8125 C 8.535156 -4.351562 8.609375 -5.007812 8.609375 -5.78125 L 8.609375 -10.921875 Z M 11.578125 -10.921875 "/></g></g><g style="fill:#000000;fill-opacity:1;"><g transform="translate(253.811841, 344.624977)"><path style="stroke:none" d="M 4.546875 0 L 1.5625 0 L 1.5625 -15.203125 L 4.546875 -15.203125 Z M 4.546875 0 "/></g></g><g style="fill:#000000;fill-opacity:1;"><g transform="translate(259.912972, 344.624977)"><path style="stroke:none" d="M 4.546875 -10.921875 L 4.546875 0 L 1.5625 0 L 1.5625 -10.921875 Z M 3.0625 -15.203125 C 3.5 -15.203125 3.875 -15.097656 4.1875 -14.890625 C 4.507812 -14.679688 4.671875 -14.296875 4.671875 -13.734375 C 4.671875 -13.179688 4.507812 -12.800781 4.1875 -12.59375 C 3.875 -12.382812 3.5 -12.28125 3.0625 -12.28125 C 2.613281 -12.28125 2.226562 -12.382812 1.90625 -12.59375 C 1.59375 -12.800781 1.4375 -13.179688 1.4375 -13.734375 C 1.4375 -14.296875 1.59375 -14.679688 1.90625 -14.890625 C 2.226562 -15.097656 2.613281 -15.203125 3.0625 -15.203125 Z M 3.0625 -15.203125 "/></g></g><g style="fill:#000000;fill-opacity:1;"><g transform="translate(266.014103, 344.624977)"><path style="stroke:none" d="M 11.484375 -5.484375 C 11.484375 -4.566406 11.359375 -3.753906 11.109375 -3.046875 C 10.867188 -2.347656 10.515625 -1.753906 10.046875 -1.265625 C 9.585938 -0.785156 9.03125 -0.421875 8.375 -0.171875 C 7.71875 0.078125 6.976562 0.203125 6.15625 0.203125 C 5.394531 0.203125 4.691406 0.078125 4.046875 -0.171875 C 3.410156 -0.421875 2.851562 -0.785156 2.375 -1.265625 C 1.90625 -1.753906 1.539062 -2.347656 1.28125 -3.046875 C 1.03125 -3.753906 0.90625 -4.566406 0.90625 -5.484375 C 0.90625 -6.691406 1.117188 -7.710938 1.546875 -8.546875 C 1.972656 -9.390625 2.582031 -10.03125 3.375 -10.46875 C 4.175781 -10.90625 5.125 -11.125 6.21875 -11.125 C 7.238281 -11.125 8.144531 -10.90625 8.9375 -10.46875 C 9.726562 -10.03125 10.347656 -9.390625 10.796875 -8.546875 C 11.253906 -7.710938 11.484375 -6.691406 11.484375 -5.484375 Z M 3.9375 -5.484375 C 3.9375 -4.765625 4.015625 -4.160156 4.171875 -3.671875 C 4.328125 -3.179688 4.570312 -2.8125 4.90625 -2.5625 C 5.238281 -2.320312 5.671875 -2.203125 6.203125 -2.203125 C 6.734375 -2.203125 7.160156 -2.320312 7.484375 -2.5625 C 7.816406 -2.8125 8.054688 -3.179688 8.203125 -3.671875 C 8.359375 -4.160156 8.4375 -4.765625 8.4375 -5.484375 C 8.4375 -6.203125 8.359375 -6.800781 8.203125 -7.28125 C 8.054688 -7.757812 7.816406 -8.117188 7.484375 -8.359375 C 7.148438 -8.597656 6.71875 -8.71875 6.1875 -8.71875 C 5.394531 -8.71875 4.820312 -8.445312 4.46875 -7.90625 C 4.113281 -7.363281 3.9375 -6.554688 3.9375 -5.484375 Z M 3.9375 -5.484375 "/></g></g><g style="fill:#000000;fill-opacity:1;"><g transform="translate(278.392078, 344.624977)"><path style="stroke:none" d=""/></g></g><g style="fill:#000000;fill-opacity:1;"><g transform="translate(283.585361, 344.624977)"><path style="stroke:none" d="M 0.59375 -4.140625 L 0.59375 -6.578125 L 5.84375 -6.578125 L 5.84375 -4.140625 Z M 0.59375 -4.140625 "/></g></g><g style="fill:#000000;fill-opacity:1;"><g transform="translate(290.018393, 344.624977)"><path style="stroke:none" d=""/></g></g><g style="fill:#000000;fill-opacity:1;"><g transform="translate(295.211676, 344.624977)"><path style="stroke:none" d="M 10.78125 0 L 0.796875 0 L 0.796875 -2.09375 L 4.390625 -5.71875 C 5.109375 -6.46875 5.6875 -7.085938 6.125 -7.578125 C 6.5625 -8.078125 6.878906 -8.53125 7.078125 -8.9375 C 7.285156 -9.351562 7.390625 -9.796875 7.390625 -10.265625 C 7.390625 -10.828125 7.226562 -11.25 6.90625 -11.53125 C 6.59375 -11.820312 6.171875 -11.96875 5.640625 -11.96875 C 5.085938 -11.96875 4.550781 -11.835938 4.03125 -11.578125 C 3.507812 -11.328125 2.96875 -10.96875 2.40625 -10.5 L 0.765625 -12.4375 C 1.171875 -12.789062 1.601562 -13.125 2.0625 -13.4375 C 2.519531 -13.75 3.050781 -14 3.65625 -14.1875 C 4.269531 -14.382812 5.003906 -14.484375 5.859375 -14.484375 C 6.796875 -14.484375 7.597656 -14.3125 8.265625 -13.96875 C 8.941406 -13.632812 9.460938 -13.175781 9.828125 -12.59375 C 10.191406 -12.007812 10.375 -11.347656 10.375 -10.609375 C 10.375 -9.828125 10.21875 -9.109375 9.90625 -8.453125 C 9.59375 -7.804688 9.140625 -7.160156 8.546875 -6.515625 C 7.953125 -5.878906 7.234375 -5.175781 6.390625 -4.40625 L 4.5625 -2.671875 L 4.5625 -2.546875 L 10.78125 -2.546875 Z M 10.78125 0 "/></g></g><g style="fill:#000000;fill-opacity:1;"><g transform="translate(306.642755, 344.624977)"><path style="stroke:none" d="M 10.703125 -7.140625 C 10.703125 -5.984375 10.613281 -4.953125 10.4375 -4.046875 C 10.257812 -3.148438 9.972656 -2.382812 9.578125 -1.75 C 9.179688 -1.113281 8.664062 -0.628906 8.03125 -0.296875 C 7.394531 0.0351562 6.617188 0.203125 5.703125 0.203125 C 4.554688 0.203125 3.613281 -0.0859375 2.875 -0.671875 C 2.144531 -1.253906 1.601562 -2.09375 1.25 -3.1875 C 0.894531 -4.289062 0.71875 -5.609375 0.71875 -7.140625 C 0.71875 -8.679688 0.878906 -10 1.203125 -11.09375 C 1.523438 -12.195312 2.050781 -13.039062 2.78125 -13.625 C 3.507812 -14.207031 4.484375 -14.5 5.703125 -14.5 C 6.835938 -14.5 7.773438 -14.207031 8.515625 -13.625 C 9.253906 -13.039062 9.800781 -12.203125 10.15625 -11.109375 C 10.519531 -10.015625 10.703125 -8.691406 10.703125 -7.140625 Z M 3.71875 -7.140625 C 3.71875 -6.054688 3.773438 -5.148438 3.890625 -4.421875 C 4.015625 -3.691406 4.21875 -3.144531 4.5 -2.78125 C 4.789062 -2.414062 5.191406 -2.234375 5.703125 -2.234375 C 6.203125 -2.234375 6.597656 -2.414062 6.890625 -2.78125 C 7.179688 -3.144531 7.390625 -3.6875 7.515625 -4.40625 C 7.640625 -5.132812 7.703125 -6.046875 7.703125 -7.140625 C 7.703125 -8.222656 7.640625 -9.128906 7.515625 -9.859375 C 7.390625 -10.585938 7.179688 -11.132812 6.890625 -11.5 C 6.597656 -11.875 6.203125 -12.0625 5.703125 -12.0625 C 5.191406 -12.0625 4.789062 -11.875 4.5 -11.5 C 4.21875 -11.132812 4.015625 -10.585938 3.890625 -9.859375 C 3.773438 -9.128906 3.71875 -8.222656 3.71875 -7.140625 Z M 3.71875 -7.140625 "/></g></g><g style="fill:#000000;fill-opacity:1;"><g transform="translate(318.073834, 344.624977)"><path style="stroke:none" d="M 10.78125 0 L 0.796875 0 L 0.796875 -2.09375 L 4.390625 -5.71875 C 5.109375 -6.46875 5.6875 -7.085938 6.125 -7.578125 C 6.5625 -8.078125 6.878906 -8.53125 7.078125 -8.9375 C 7.285156 -9.351562 7.390625 -9.796875 7.390625 -10.265625 C 7.390625 -10.828125 7.226562 -11.25 6.90625 -11.53125 C 6.59375 -11.820312 6.171875 -11.96875 5.640625 -11.96875 C 5.085938 -11.96875 4.550781 -11.835938 4.03125 -11.578125 C 3.507812 -11.328125 2.96875 -10.96875 2.40625 -10.5 L 0.765625 -12.4375 C 1.171875 -12.789062 1.601562 -13.125 2.0625 -13.4375 C 2.519531 -13.75 3.050781 -14 3.65625 -14.1875 C 4.269531 -14.382812 5.003906 -14.484375 5.859375 -14.484375 C 6.796875 -14.484375 7.597656 -14.3125 8.265625 -13.96875 C 8.941406 -13.632812 9.460938 -13.175781 9.828125 -12.59375 C 10.191406 -12.007812 10.375 -11.347656 10.375 -10.609375 C 10.375 -9.828125 10.21875 -9.109375 9.90625 -8.453125 C 9.59375 -7.804688 9.140625 -7.160156 8.546875 -6.515625 C 7.953125 -5.878906 7.234375 -5.175781 6.390625 -4.40625 L 4.5625 -2.671875 L 4.5625 -2.546875 L 10.78125 -2.546875 Z M 10.78125 0 "/></g></g><g style="fill:#000000;fill-opacity:1;"><g transform="translate(329.504913, 344.624977)"><path style="stroke:none" d="M 6 -9.125 C 6.875 -9.125 7.648438 -8.957031 8.328125 -8.625 C 9.003906 -8.289062 9.535156 -7.800781 9.921875 -7.15625 C 10.316406 -6.507812 10.515625 -5.71875 10.515625 -4.78125 C 10.515625 -3.75 10.300781 -2.859375 9.875 -2.109375 C 9.445312 -1.367188 8.8125 -0.796875 7.96875 -0.390625 C 7.125 0.00390625 6.078125 0.203125 4.828125 0.203125 C 4.078125 0.203125 3.367188 0.132812 2.703125 0 C 2.046875 -0.125 1.472656 -0.316406 0.984375 -0.578125 L 0.984375 -3.1875 C 1.472656 -2.925781 2.0625 -2.703125 2.75 -2.515625 C 3.445312 -2.335938 4.101562 -2.25 4.71875 -2.25 C 5.3125 -2.25 5.8125 -2.328125 6.21875 -2.484375 C 6.632812 -2.648438 6.945312 -2.898438 7.15625 -3.234375 C 7.375 -3.566406 7.484375 -3.992188 7.484375 -4.515625 C 7.484375 -5.210938 7.25 -5.75 6.78125 -6.125 C 6.3125 -6.5 5.59375 -6.6875 4.625 -6.6875 C 4.25 -6.6875 3.859375 -6.648438 3.453125 -6.578125 C 3.054688 -6.503906 2.726562 -6.429688 2.46875 -6.359375 L 1.265625 -7 L 1.796875 -14.28125 L 9.546875 -14.28125 L 9.546875 -11.71875 L 4.4375 -11.71875 L 4.1875 -8.921875 C 4.40625 -8.960938 4.644531 -9.003906 4.90625 -9.046875 C 5.164062 -9.097656 5.53125 -9.125 6 -9.125 Z M 6 -9.125 "/></g></g></g></svg>